<?xml version="1.0" encoding="UTF-8"?>
<svg id="Layer_1" data-name="Layer 1" xmlns="http://www.w3.org/2000/svg" viewBox="0 0 512 512">
  <defs>
    <style>
      .cls-1 {
        fill: #f15a24;
      }

      .cls-1, .cls-2, .cls-3 {
        stroke-width: 0px;
      }

      .cls-2 {
        fill: #333;
      }

      .cls-3 {
        fill: #29abe2;
      }
    </style>
  </defs>
  <g>
    <path class="cls-3" d="M18.85,312.08c.52-.9,10.34,7.68,22.97,5.78,1.63-.25,14.14-2.36,17.36-12.11,1.61-4.88.75-11.65-3.01-15.38-2.22-2.21-4.23-2.06-4.63-3.77-1.04-4.38,11.08-10.2,10.2-12.02-.45-.94-4.43-.85-12.19-1.08-.96-.03-1.92-.27-1.88-1.46-2.61-3.63,21.6-1.23,22.32-1.88,1.11-.03,1.99,1,1.88,2.09-14.14,17.56.76,57.28,12.51,39-1.2-4.84,3.18-37.16-3.34-38.79-1.12-.38-1.85-2.22-.21-2.29.57.45,18.2-1.09,17.31.99-3.02,1.92-5.16,4.86-4.8,8.81,0,0,0,34.2,0,34.2-.72,5.46,5.32,6.62,4.41,8.68-.16.19-.37.29-.65.29h-16.48c-.36.01-.63-.38-.83-.63-3.45-2.38-8.59-5.07-14.81-5.01-9.99.11-13.41,6.48-22.61,7.07-13.2.85-24.08-11.51-23.51-12.5Z"/>
    <path class="cls-3" d="M104.64,320.14c.56-.57,1-1.23,1.33-1.98.33-.75.56-1.55.7-2.4.14-.85.21-1.69.21-2.53v-33.16c0-.9-.07-1.8-.21-2.69-.14-.89-.37-1.69-.7-2.42-.33-.73-.77-1.37-1.33-1.93-.56-.56-1.25-.96-2.09-1.2-.17-.07-.3-.19-.37-.37-.07-.17-.09-.36-.05-.55.03-.19.13-.37.29-.52s.36-.23.6-.23h16.42c.38,0,.66.18.83.55.17.37.07.74-.31,1.12-.49.35-.97.66-1.46.94-.49.28-.93.68-1.33,1.2-.4.52-.72,1.24-.96,2.16-.24.92-.37,2.23-.37,3.94v14.03c2.09-.42,4.08-.61,5.97-.57,1.89.04,3.94.38,6.13,1.04,1.36.42,2.65,1.08,3.88,1.98,1.23.9,2.32,1.9,3.26,3,.94,1.1,1.7,2.22,2.29,3.36.59,1.15.9,2.17.94,3.08.07.35.1.86.1,1.54s0,1.38-.03,2.11c-.02.73-.04,1.42-.05,2.06-.02.64-.03,1.07-.03,1.28,0,1.7.14,3.03.42,3.99.28.96.63,1.7,1.04,2.24.42.54.89.96,1.41,1.25.52.3,1.02.63,1.51,1.02.17.1.28.25.31.44.03.19.03.38-.03.57-.05.19-.16.35-.31.47-.16.12-.32.18-.5.18h-16.42c-.31,0-.54-.08-.68-.23-.14-.16-.22-.34-.23-.55-.02-.21.03-.43.13-.65.1-.23.28-.39.52-.5.76,0,1.4-.32,1.9-.96.5-.64.9-1.39,1.2-2.24.29-.85.5-1.73.63-2.63.12-.9.18-1.62.18-2.14v-3.86c0-.94-.14-1.93-.42-2.97-.28-1.04-.66-2.06-1.15-3.05-.49-.99-1.09-1.91-1.8-2.76-.71-.85-1.49-1.55-2.35-2.09-.85-.54-1.78-.88-2.79-1.02-1.01-.14-2.05.02-3.13.47-.7.28-1.19.6-1.49.96-.3.37-.44.62-.44.76v13.3c0,1.7.12,3.03.37,3.99.24.96.56,1.7.96,2.24.4.54.84.96,1.33,1.25.49.3.97.63,1.46,1.02.17.1.28.25.31.44.03.19.03.38-.03.57-.05.19-.16.35-.31.47-.16.12-.32.18-.5.18h-16.42c-.24,0-.44-.08-.6-.23-.16-.16-.25-.33-.29-.52-.04-.19-.02-.38.05-.57.07-.19.19-.3.37-.34.83-.31,1.53-.76,2.09-1.33Z"/>
    <path class="cls-3" d="M148.73,320.14c.57-.57,1.02-1.23,1.36-1.98.33-.75.56-1.55.7-2.4.14-.85.21-1.69.21-2.53v-9.7c0-.9-.07-1.78-.21-2.63-.14-.85-.37-1.64-.7-2.37-.33-.73-.78-1.37-1.36-1.93-.57-.56-1.28-.99-2.11-1.3-.17-.07-.3-.19-.37-.36-.07-.17-.08-.36-.03-.55.05-.19.15-.37.29-.52.14-.16.33-.23.57-.23h16.48c.17,0,.33.06.47.18.14.12.24.28.31.47.07.19.08.38.03.57-.05.19-.17.34-.34.44-.49.35-.97.67-1.46.96-.49.3-.93.71-1.33,1.25-.4.54-.72,1.27-.96,2.19-.24.92-.37,2.2-.37,3.83v9.44c0,1.7.12,3.03.37,3.99.24.96.56,1.7.96,2.24.4.54.84.96,1.33,1.25.49.3.97.63,1.46,1.02.17.1.29.25.34.44.05.19.04.38-.03.57-.07.19-.17.35-.31.47-.14.12-.3.18-.47.18h-16.48c-.24,0-.43-.08-.57-.23-.14-.16-.23-.33-.29-.52-.05-.19-.04-.38.03-.57.07-.19.19-.3.37-.34.83-.31,1.54-.76,2.11-1.33Z"/>
    <path class="cls-3" d="M195.94,299.42c.03.59-.14,1.08-.52,1.46l-4.12,3.39c-.38.38-.86.5-1.43.36-.57-.14-.98-.5-1.23-1.09-.14-.38-.24-.81-.31-1.28s-.15-.94-.23-1.41c-.09-.47-.18-.9-.29-1.3-.1-.4-.24-.69-.42-.86-.69-.59-1.37-.98-2.03-1.17-.66-.19-1.34-.04-2.03.44-.49.28-.9.67-1.22,1.17-.33.5-.5,1-.5,1.49v14.81c.1,1.08.3,1.93.6,2.55.29.63.63,1.14,1.02,1.54.38.4.79.73,1.23.99.43.26.86.58,1.28.96.17.1.29.25.37.44.07.19.08.38.03.57-.05.19-.15.35-.29.47-.14.12-.33.18-.57.18h-16.48c-.24,0-.44-.08-.57-.23-.14-.16-.23-.34-.26-.55-.04-.21,0-.43.1-.65.1-.23.28-.39.52-.5.8-.24,1.46-.63,1.98-1.17.52-.54.94-1.17,1.25-1.9.31-.73.53-1.52.65-2.37.12-.85.18-1.69.18-2.53v-7.51c-.1-1.04-.32-1.9-.65-2.58-.33-.68-.7-1.23-1.12-1.64s-.85-.73-1.3-.94c-.45-.21-.87-.35-1.25-.42-.31,0-.47-.16-.47-.47-.14,0-.22-.06-.23-.18-.02-.12-.03-.3-.03-.55s.06-.47.18-.68c.12-.21.3-.31.55-.31.73-.1,1.46-.25,2.19-.44.73-.19,1.44-.36,2.14-.5,1.6-.49,3.16-.96,4.69-1.41,1.53-.45,2.95-.87,4.28-1.25.97-.38,1.85-.64,2.63-.78.78-.14,1.36-.21,1.75-.21h.21c.14,0,.3,0,.5.03.19.02.36.1.5.23,3.34,1.43,6,2.87,7.98,4.33.49.38.75.87.78,1.46Z"/>
    <path class="cls-3" d="M199.85,320.04c.52-.54.94-1.17,1.25-1.9.31-.73.53-1.52.65-2.37.12-.85.18-1.69.18-2.53v-33.16c0-.9-.06-1.78-.18-2.63-.12-.85-.34-1.64-.65-2.37-.31-.73-.73-1.37-1.25-1.93-.52-.56-1.18-.99-1.98-1.3-.24-.07-.42-.19-.52-.37-.1-.17-.14-.36-.1-.55.03-.19.12-.37.26-.52.14-.16.33-.23.57-.23h16.48c.24,0,.43.06.57.18.14.12.23.28.29.47.05.19.04.38-.03.57-.07.19-.19.34-.37.44-.49.35-.97.67-1.46.96-.49.3-.93.72-1.33,1.28-.4.56-.72,1.31-.96,2.27-.24.96-.37,2.29-.37,3.99v32.64c0,1.7.12,3.02.37,3.96.24.94.56,1.67.96,2.19.4.52.84.94,1.33,1.25.49.31.97.68,1.46,1.1.17.1.29.25.37.44.07.19.08.38.03.57-.05.19-.15.35-.29.47-.14.12-.33.18-.57.18h-16.48c-.24,0-.44-.09-.57-.26-.14-.17-.23-.37-.26-.6-.03-.23,0-.44.1-.65.1-.21.28-.35.52-.42.8-.24,1.46-.63,1.98-1.17Z"/>
    <path class="cls-1" d="M241.31,293.68c.86-.15,1.82-.34,2.87-.58,1.05-.24,2.15-.52,3.29-.83,1.14-.31,2.26-.61,3.34-.88,1.09-.28,2.1-.54,3.04-.8.94-.26,1.72-.46,2.35-.61.63-.15,1.31-.33,2.05-.55.74-.22,1.47-.43,2.21-.64.74-.2,1.46-.38,2.18-.53.72-.15,1.37-.22,1.96-.22.99,0,1.72.3,2.18.88.46.59.69,1.36.69,2.32,0,1.92-.07,3.92-.22,6-.15,2.08-.37,4.08-.66,6-.63,4.02-2.04,7.5-4.23,10.45-2.19,2.95-5.06,5.36-8.6,7.24-.88.48-1.93.86-3.12,1.13-1.2.28-2.45.49-3.76.64-1.31.15-2.6.25-3.87.3s-2.4.08-3.4.08c-1.07,0-1.97-.04-2.71-.11-.74-.07-1.43-.17-2.07-.3-.65-.13-1.31-.28-1.99-.47-.68-.18-1.52-.39-2.51-.61-.22-.07-.48-.13-.77-.17-.3-.04-.55-.06-.77-.06-.7,0-1.36.08-1.99.25-.63.17-1.21.36-1.74.58-.54.22-1.03.41-1.49.58-.46.17-.88.25-1.24.25-.52,0-.86-.21-1.02-.64-.17-.42-.25-.84-.25-1.24v-6.85c0-.99,0-1.93.03-2.79.02-.87.05-1.61.08-2.24.04-.63.07-1.01.11-1.16.15-.48.42-.85.83-1.11.4-.26.87-.39,1.38-.39.4,0,.95.28,1.63.83.68.55,1.47,1.23,2.38,2.04.9.81,1.93,1.7,3.07,2.65,1.14.96,2.4,1.84,3.76,2.65,1.36.81,2.85,1.49,4.45,2.04,1.6.55,3.31.83,5.11.83,1.4,0,2.73-.24,3.98-.72,1.25-.48,2.36-1.16,3.32-2.05.96-.88,1.72-1.93,2.29-3.12.57-1.2.86-2.51.86-3.95,0-.99-.12-1.99-.36-2.98-.24-.99-.62-1.9-1.13-2.71-.52-.81-1.18-1.46-1.99-1.96s-1.79-.75-2.93-.75h-.41c-.13,0-.25.02-.36.06l-21.23,3.32c-.33.07-.66.13-.99.17-.33.04-.68.06-1.05.06-1.03,0-1.84-.4-2.43-1.22-.59-.81-1.02-1.78-1.3-2.9-.28-1.12-.44-2.28-.5-3.48-.05-1.2-.08-2.16-.08-2.9,0-3.1.36-6.14,1.08-9.15.72-3,1.85-5.69,3.4-8.07,1.55-2.38,3.55-4.32,6-5.83,2.45-1.51,5.43-2.34,8.93-2.49.92-.04,1.83-.07,2.74-.11.9-.04,1.81-.06,2.74-.06,1.22,0,2.59.03,4.12.08,1.53.06,3.08.15,4.64.28,1.57.13,3.1.3,4.59.53,1.49.22,2.81.5,3.95.83.22.07.44.17.66.28.22.11.33.3.33.55s-.07.61-.22,1.05c-.15.44-.31.94-.5,1.49-.18.55-.35,1.14-.5,1.77-.15.63-.22,1.27-.22,1.93,0,.7.06,1.38.19,2.04.13.66.27,1.31.41,1.93.15.63.29,1.23.41,1.8.13.57.19,1.12.19,1.63,0,.26-.04.46-.11.61-.07.15-.26.22-.55.22-.41,0-.94-.28-1.6-.83-.66-.55-1.44-1.23-2.32-2.05-.88-.81-1.87-1.69-2.96-2.65-1.09-.96-2.26-1.84-3.51-2.65-1.25-.81-2.57-1.49-3.95-2.05s-2.81-.83-4.28-.83-2.89.28-4.15.83c-1.25.55-2.34,1.31-3.26,2.27-.92.96-1.63,2.07-2.13,3.34-.5,1.27-.75,2.65-.75,4.12,0,.99.08,2.1.25,3.32.17,1.22.49,2.37.97,3.45.48,1.09,1.12,1.99,1.93,2.71.81.72,1.84,1.08,3.09,1.08.55,0,1.26-.07,2.13-.22Z"/>
  </g>
  <g>
    <path class="cls-2" d="M271.37,284.86c41.53-4.72,83.03-9.44,124.56-14.16,26.99-7.59,29.35-51.46,11.4-69.06-6-6.23-14.09-6.87-22.19-7.58-9.11-1.04-18.22-2.07-27.33-3.11-28.82-3.27-57.62-6.55-86.44-9.82,56.15,11.44,56.19,92.26,0,103.72Z"/>
    <path class="cls-2" d="M496.6,212.28c-1.34,3.48-3.48,7.32-6.19,11.07l-.32.45-.32-.45c-.75-1.04-1.56-2.06-2.4-3.04-2.69-3.11-4.48-5.18-6.78-6.02-.64-.24-1.23-.35-1.83-.35-.92,0-1.74.28-2.6.58-.98.35-2,.7-3.32.7-.4,0-.81-.03-1.23-.1-4.31-.7-7.01-4.64-8.63-6.99-.47-.69-1.05-1.53-1.33-1.71-.43.96,1.16,7.15,3.78,14.65,2.87,8.26,5.03,14.37,6.7,19.08,3.32,9.38,4.69,13.26,5.9,17.61,3.03,10.91,4.57,20.82,4.68,30.33v.47c1.01,16.29-1.78,38.81-20.46,54.62-10.14,8.58-23.21,13.32-36.81,13.32h-129.43l-.04-.79c3.21-.36,9.52-.69,17.52-1.11,26.2-1.38,74.98-3.97,100.4-12.13,9.95-3.19,17.64-9.01,24.42-14.14.14-.11.28-.21.43-.32-8.39,2.99-17.12,4.85-25.99,5.54l-2.05.16c-10.92.85-27.43,2.13-40.25,2.13-6.08,0-10.72-.3-13.82-.89l-2.61-.49,2.64-.29,2.69-.28c11.09-1.18,34.1-3.61,52.31-9.03,4.56-1.35,8.82-2.9,12.52-4.65,2.67-1.27,5.28-2.66,7.8-4.16,7.77-4.63,14.82-10.34,21.04-17.05-6.55,4.13-13.64,7.22-21.14,9.18v-7.36c10.64-5.97,20.81-15.22,26.35-29.53.64-1.64,1.22-3.34,1.72-5.07.49-1.67.73-3.33.98-5.09l.03-.21c1.37-9.62,1-18.06-1.21-27.35-2.25-9.47-5.43-19.22-9.44-28.99l-.11-.26c-1.18-2.87-2.8-6.8-1.18-10.55.94-2.19,2.93-4.23,5.48-5.63-2.01-2.64-2.88-5.49-2.58-8.49-1.88-.32-4.92-1.65-8.24-4.51-2.44-2.11-3.37-4.39-3.72-5.93l-.37-1.63,1.06,1.29c1.2,1.45,3.94,4.13,8.8,5.67,2.44.77,5.07,1.16,7.8,1.16h.33l.09.32c.49,2.77,1.83,5.46,3.86,7.78.88,1,1.9,1.94,3.03,2.81,1.57.4,2.88,1.09,4.39,1.88,2.35,1.23,4.99,2.63,9.58,3.45,1.32.23,2.66.4,3.99.47l.43.03-.07.43c-.24,1.4-.39,4.14,1.24,6.84,1.41,2.33,3.06,3.68,4.9,4.01.32.06.66.09,1.03.09,2.72,0,5.63-1.64,5.66-1.66l.39-.22.17.42c.04.11,1.1,2.71,1.32,4.79.15,1.5-.12,2.91-1,5.19Z"/>
    <g>
      <path class="cls-2" d="M355.9,174.84c-.13,4.27-.2,8.53-.22,12.8l4.35.5c-.07-11.01-.35-22.03-1.33-33.01,0,0-1.69,0-1.69,0-.2,2.07-.35,4.15-.49,6.22l-.62,13.49Z"/>
      <path class="cls-1" d="M153.02,272.44c.33-.64.77-1.06.89-1.17.9-.83,1.95-1.04,2.47-1.11-.51,1.05-.48,1.8-.36,2.29.49,1.99,3.08,2.25,3.42,4.31.12.71-.06,1.48-.14,1.75-.35,1.28-1.06,1.72-.85,2.41.15.49.72.89,1.07.77.34-.12.54-.77.36-1.59.34.17.85.47,1.29,1.01,0,0,1.06,1.31.82,3.17-.33,2.54-3.57,4.81-6.78,4.76-.19,0-3.83-.13-5.69-3.12-1.66-2.68-1.15-6.48,1.42-9.07-.02.96.35,1.76.94,1.99.02,0,.05.02.05.02.38.13.74.03.79,0,.58-.23-1-3.9.3-6.43Z"/>
    </g>
  </g>
  <path class="cls-3" d="M14.16,292.63c-.21,1.78-1.39,13.25,6.45,21.74.87.94,5.07,5.32,11.45,7.17,3.87,1.12,7.77,1.27,11.68.39,8.43-1.89,14.98-7.44,16.36-16.57.99-6.58-.71-12.53-5.98-17-6.64-5.64-17.35-4.5-22.01,2.49-3.7,5.56-2.34,13.24,2.89,16.63,4.83,3.13,11.41,1.48,13.69-3.42,1.98-4.27-.18-9.23-4.54-10.23-2.32-.53-4.4.09-5.89,2-1.28,1.63-1.42,3.48-.46,5.35.77,1.5,2.43,2.29,4.12,2.04,1.48-.22,2.5-1.15,2.81-2.64.22-1.03-.13-1.92-.92-2.59-.69-.58-1.48-.85-2.38-.43-.28.13-.56.27-.48.65.07.33.37.36.63.32.85-.13,1.51.11,1.72.99.18.77-.14,1.44-.94,1.79-.62.27-1.37.21-1.93-.16-1.53-1.03-1.19-3.58.45-4.37,1.38-.66,2.71-.54,3.86.44,1.27,1.09,1.63,2.56,1.27,4.15-.4,1.76-1.47,2.99-3.23,3.5-2.31.67-4.45.3-6.21-1.39-3.59-3.46-2.37-10.17,2.25-12.53,6.12-3.12,13.54.06,15.52,6.66,2.42,8.06-1.52,15.73-9.52,18.53-3.18,1.11-6.44,1.38-9.53.92-10.55-1.59-15.3-12.14-15.64-12.91-1.27-2.88-1.74-5.62-1.87-7.88-.1-1.75.14-3.49.68-5.16,1.01-3.08,3.17-7.79,7.81-11.78,5.46-4.69,11.32-5.77,13.67-6.08-2.29-.36-7.71-.88-13.41,1.94-10.14,5.02-12.16,16.16-12.37,17.42Z"/>
  <g>
    <path class="cls-1" d="M312.57,303.14c-.95-2.02-2.21-3.84-3.81-5.43-.8-.8-1.77-1.52-2.93-2.17-1.15-.64-2.37-1.2-3.64-1.68-1.26-.47-2.54-.84-3.81-1.08-1.27-.24-2.4-.37-3.38-.37-1.33,0-2.42,0-3.27.03-.85.02-1.56.06-2.13.11-.57.06-1.02.12-1.34.17-.32.06-.62.12-.88.2-1.6.27-3.03.32-4.3.17-1.27-.16-2.3-.31-3.1-.46-.42-.11-1.04-.19-1.85-.23-.81-.04-1.64-.06-2.45-.06s-1.53,0-2.13.03c-.61.02-.92.02-.96.02-.27,0-.5.07-.69.2-.19.13-.33.31-.43.51-.09.21-.11.42-.06.62.06.21.18.37.37.49.53.38,1.07.73,1.62,1.05.55.32,1.05.78,1.51,1.39.46.61.84,1.43,1.14,2.47.3,1.04.46,2.5.46,4.35v35.62c0,1.86-.16,3.3-.46,4.33-.3,1.02-.68,1.82-1.14,2.39s-.96,1.03-1.51,1.37c-.55.34-1.09.73-1.62,1.19-.19.11-.32.28-.37.48-.06.21-.04.42.06.62.09.21.24.38.43.51.19.13.42.2.69.2h17.69c.27,0,.49-.08.68-.25.19-.17.32-.37.37-.6.06-.22.05-.47-.02-.71-.08-.24-.25-.43-.51-.54-.84-.27-1.55-.7-2.13-1.28s-1.05-1.28-1.4-2.08c-.34-.8-.58-1.66-.73-2.58-.15-.93-.23-1.85-.23-2.77v-16.38c1.71.42,3.51.72,5.41.91,1.9.19,3.79.22,5.69.09,1.9-.13,3.74-.46,5.52-.97,1.79-.51,3.41-1.26,4.9-2.24,1.48-.99,2.73-2.26,3.78-3.82,1.04-1.55,1.78-3.41,2.2-5.57.11-.27.17-.57.2-.91.02-.34.02-.66.02-.97,0-2.24-.47-4.37-1.42-6.4ZM301.36,309.06c-.08,1.16-.25,2.28-.54,3.36s-.66,2.09-1.14,3.04c-.47.95-.98,1.71-1.51,2.28-.65.65-1.45,1.15-2.42,1.51-.97.36-1.93.48-2.88.37-.26,0-.76-.07-1.48-.2-.72-.13-1.53-.33-2.45-.6-.79-.15-1.44-.52-1.93-1.11-.5-.59-.74-1.28-.74-2.08v-12.41c0-.8.25-1.53.77-2.22.51-.68,1.22-1.07,2.13-1.19h5.81c1.86.12,3.23.7,4.12,1.74.89,1.04,1.54,2.47,1.96,4.29.27.99.36,2.06.28,3.22Z"/>
    <path class="cls-1" d="M351.4,295.52c-.62-.55-1.44-1.02-2.44-1.4-1-.38-2.13-.68-3.36-.91-1.23-.23-2.44-.4-3.61-.51-1.18-.11-2.27-.19-3.27-.23-1-.03-1.78-.06-2.31-.06-1.29,0-2.66.17-4.09.51-1.45.34-2.88.82-4.3,1.45-1.42.62-2.77,1.38-4.04,2.28-1.27.89-2.4,1.88-3.38,2.99-.99,1.1-1.77,2.31-2.34,3.64-.57,1.33-.85,2.72-.85,4.16,0,2.09.47,4.16,1.4,6.2.92,2.05,2.17,3.89,3.72,5.52,1.56,1.64,3.33,2.95,5.33,3.96,1.99,1,4.05,1.5,6.17,1.5,1.67,0,3.4-.15,5.21-.45,1.79-.31,3.49-.69,5.09-1.14,1.44-.42,2.43-1.03,2.96-1.83.54-.79.8-1.95.8-3.47,0-.15,0-.37.03-.66.02-.28,0-.55-.03-.82-.04-.27-.11-.49-.23-.68-.11-.19-.3-.28-.57-.28-.19,0-.36.03-.54.11-.17.08-.35.15-.54.23-1.22.64-2.36,1.07-3.45,1.28-1.08.21-2.32.31-3.73.31-.95,0-1.86-.06-2.73-.17-.88-.12-1.66-.34-2.36-.69-.7-.34-1.31-.81-1.82-1.42-.51-.6-.92-1.42-1.22-2.44-.08-.12-.12-.24-.12-.4,0-.38.13-.63.4-.77.26-.13.57-.21.91-.23.34-.02.7,0,1.08.06.38.06.68.08.91.08,1.79,0,3.49-.24,5.12-.73,1.63-.5,3.21-1.12,4.73-1.88.98-.57,1.92-1.22,2.81-1.96.89-.74,1.71-1.55,2.45-2.42.73-.88,1.37-1.81,1.9-2.82.53-1,.91-2.07,1.14-3.21.07-.08.11-.18.11-.32v-.37c0-.8-.31-1.47-.94-2.02ZM339.23,299.44c-.25.63-.54,1.3-.85,1.99-.32.7-.65,1.35-.97,1.94-.32.59-.56.98-.71,1.17-.57.61-1.3,1.08-2.19,1.42-.89.34-1.75.51-2.59.51-.26,0-.55-.03-.88-.09-.32-.06-.48-.29-.48-.71,0-.08,0-.14.02-.2.02-.06.03-.11.03-.14.23-.99.52-1.97.88-2.93.36-.97.83-1.85,1.4-2.65s1.27-1.44,2.1-1.94c.84-.49,1.84-.73,3.02-.73.42,0,.78.05,1.11.14s.48.43.48,1c0,.19-.12.59-.36,1.22Z"/>
    <path class="cls-1" d="M389.75,295.52c-.62-.55-1.44-1.02-2.44-1.4-1.01-.38-2.13-.68-3.36-.91-1.23-.23-2.44-.4-3.61-.51-1.18-.11-2.27-.19-3.27-.23-1.01-.03-1.78-.06-2.31-.06-1.29,0-2.66.17-4.09.51-1.45.34-2.88.82-4.3,1.45-1.42.62-2.77,1.38-4.04,2.28-1.27.89-2.4,1.88-3.39,2.99-.98,1.1-1.76,2.31-2.33,3.64-.57,1.33-.85,2.72-.85,4.16,0,2.09.47,4.16,1.4,6.2.92,2.05,2.17,3.89,3.72,5.52,1.56,1.64,3.33,2.95,5.32,3.96,1.99,1,4.05,1.5,6.18,1.5,1.67,0,3.4-.15,5.2-.45,1.8-.31,3.5-.69,5.1-1.14,1.44-.42,2.43-1.03,2.96-1.83.53-.79.8-1.95.8-3.47,0-.15,0-.37.03-.66.02-.28,0-.55-.03-.82s-.11-.49-.23-.68c-.11-.19-.3-.28-.57-.28-.19,0-.37.03-.54.11-.17.08-.36.15-.55.23-1.21.64-2.35,1.07-3.44,1.28-1.08.21-2.32.31-3.73.31-.95,0-1.86-.06-2.73-.17-.88-.12-1.66-.34-2.36-.69-.7-.34-1.31-.81-1.83-1.42-.51-.6-.92-1.42-1.22-2.44-.08-.12-.12-.24-.12-.4,0-.38.13-.63.4-.77.26-.13.57-.21.91-.23.34-.02.7,0,1.08.06.37.06.68.08.91.08,1.78,0,3.48-.24,5.12-.73,1.63-.5,3.2-1.12,4.72-1.88.99-.57,1.93-1.22,2.82-1.96.89-.74,1.71-1.55,2.44-2.42.74-.88,1.37-1.81,1.91-2.82.53-1,.91-2.07,1.14-3.21.07-.08.11-.18.11-.32v-.37c0-.8-.32-1.47-.94-2.02ZM377.57,299.44c-.25.63-.53,1.3-.85,1.99-.32.7-.64,1.35-.96,1.94-.32.59-.56.98-.71,1.17-.57.61-1.3,1.08-2.19,1.42-.89.34-1.75.51-2.59.51-.26,0-.56-.03-.88-.09-.32-.06-.49-.29-.49-.71,0-.08.02-.14.03-.2.02-.06.03-.11.03-.14.22-.99.52-1.97.88-2.93.36-.97.83-1.85,1.4-2.65s1.26-1.44,2.1-1.94c.83-.49,1.84-.73,3.02-.73.41,0,.78.05,1.11.14s.48.43.48,1c0,.19-.12.59-.37,1.22Z"/>
    <path class="cls-1" d="M436.72,268.15c-.04.21-.16.37-.34.49-.54.45-1.07.85-1.6,1.19-.53.34-1.02.8-1.45,1.37-.43.57-.78,1.36-1.05,2.39-.26,1.03-.4,2.47-.4,4.32v19.93c-3.36,1.9-6.76,3.48-10.08,4.77v-1.19c0-.8-.23-1.49-.68-2.08-.46-.58-1-.96-1.65-1.11-1.1-.27-2-.47-2.7-.6-.7-.13-1.13-.2-1.28-.2-1.14-.15-2.16-.04-3.07.34-.91.38-1.71.93-2.39,1.65s-1.26,1.57-1.74,2.56-.82,2.01-1.05,3.07c-.23,1.06-.36,2.12-.4,3.18-.02.46-.02.9.02,1.33,0,.13.02.27.03.4,0,.16.03.31.06.46.02.13.04.27.06.4.02.11.04.21.06.32.53,1.86,1.3,3.26,2.3,4.18,1,.93,2.09,1.56,3.27,1.9,1.18.35,2.35.47,3.53.37,1.17-.09,2.17-.21,3.01-.37.8-.15,1.43-.55,1.9-1.22.47-.66.71-1.4.71-2.2v-2.17c3.21-.39,6.39-.98,9.52-1.77.18-.05.37-.09.55-.15v3.02c0,.75.02,1.43.06,2.04-2.57,1.53-5.21,2.95-7.93,4.24-3.91,1.86-9.34,3.64-14.21,5.05-.65.02-1.2-.02-1.63-.07-.56-.07-.99-.17-1.18-.22-.15-.04-.48-.11-1.02-.32-1.27-.47-2.48-1.04-3.64-1.68-1.15-.64-2.13-1.36-2.92-2.16-1.6-1.71-2.88-3.6-3.84-5.67-.97-2.06-1.45-4.24-1.45-6.51,0-.27,0-.57.03-.91.02-.34.1-.65.25-.91.42-2.13,1.15-3.96,2.19-5.49,1.04-1.54,2.31-2.81,3.79-3.82,1.48-1,3.12-1.77,4.92-2.3,1.8-.53,3.65-.88,5.55-1.03s3.79-.13,5.69.06c1.9.19,3.66.51,5.29.97v-16.39c0-.91-.07-1.83-.23-2.76-.15-.93-.4-1.79-.73-2.59-.34-.79-.8-1.49-1.37-2.07-.57-.59-1.29-1.02-2.16-1.28-.27-.12-.44-.3-.51-.55-.08-.24-.08-.48,0-.71.07-.23.21-.43.4-.59.19-.17.42-.26.69-.26h17.91c.2,0,.36.07.51.2.15.13.27.31.34.51.08.21.09.42.06.62Z"/>
  </g>
  <path class="cls-2" d="M431.88,300.78c-1.17.74-2.86,1.75-4.99,2.8-2.02.99-3.19,1.56-4.9,2.03-1.3.35-3.65.97-6.66.59-2.08-.26-3.71-.91-4.75-1.41,1.51,2.16,3.21,3.21,4.15,3.69,2.6,1.34,5.11,1.27,7.2,1.21,1.26-.03,2.54-.24,5.1-.66,2.02-.33,3.69-.66,4.85-.9v-7.36Z"/>
</svg>