<?xml version="1.0" encoding="UTF-8"?>
<svg id="Layer_2" data-name="Layer 2" xmlns="http://www.w3.org/2000/svg" viewBox="0 0 1664.01 1664.01">
  <defs>
    <style>
      .cls-1 {
        fill: #fff;
        fill-rule: evenodd;
        stroke-width: 0px;
      }
    </style>
  </defs>
  <g id="Layer_1-2" data-name="Layer 1">
    <path class="cls-1" d="M1172.85,474.41c-87.22-87.22-207.73-141.17-340.85-141.17s-253.63,53.95-340.85,141.17c-87.22,87.22-141.17,207.73-141.17,340.84s53.95,253.64,141.17,340.86c87.22,87.22,207.73,141.16,340.85,141.16s253.63-53.94,340.85-141.16c87.22-87.22,141.18-207.74,141.18-340.86s-53.95-253.62-141.18-340.84M1003.61,198.22c54.53,15.14,106.13,37.31,153.77,65.47l-.52-.32,154.87-128.26,108.58,108.58,108.58,108.58-132.61,160.13-.3-.56c24.76,45.94,44.08,95.25,57.09,147.06l-.06-.29,211,19.83v153.56s0,153.56,0,153.56l-220.69,20.73.05-.19c-14.5,46.5-34.15,90.71-58.29,131.98l143.82,173.65-108.58,108.58-108.58,108.58-178.98-148.23.67-.37c-39.83,21.29-82.16,38.5-126.45,51.05l.46-.12-21.87,232.79h-307.12l-21.87-232.79c-43.95-12.49-85.95-29.56-125.5-50.65l.18.1-178.99,148.24-108.58-108.58-108.58-108.58,143.82-173.65.23.37c-24.24-41.38-43.98-85.71-58.52-132.34l.06.18L0,985.56v-153.56s0-153.56,0-153.56l211-19.83-.19.81c13-51.97,32.35-101.44,57.18-147.51l-.26.48-132.62-160.13,108.58-108.58,108.58-108.58,154.88,128.26-.12.08c47.41-27.98,98.74-50.03,152.95-65.12l-.16.04L678.44,0h307.12l18.64,198.38-.6-.16Z"/>
    <polygon class="cls-1" points="683.92 667.17 622.59 728.51 622.59 815.25 622.59 901.99 683.92 963.33 745.26 1024.66 832 1024.66 918.75 1024.66 980.08 963.33 1041.42 901.99 1041.42 815.25 1041.42 728.51 980.08 667.17 918.75 605.84 832 605.84 745.26 605.84 683.92 667.17"/>
  </g>
</svg>